<svg width="70" height="69" viewBox="0 0 70 69" fill="none" xmlns="http://www.w3.org/2000/svg">
<g opacity="0.8" clip-path="url(#clip0)">
<path d="M7.88094 26.6943L0 34.4784L7.88094 42.2625L15.7835 34.4784L7.88094 26.6943Z" fill="white"/>
<path d="M35 15.5681L48.5595 28.9369L56.4404 21.1528L35 0L13.5595 21.1528L21.4404 28.9369L35 15.5681Z" fill="white"/>
<path d="M62.1191 26.6943L54.2166 34.4784L62.1191 42.2625L70 34.4784L62.1191 26.6943Z" fill="white"/>
<path d="M35 53.4319L21.4404 40.0631L13.5595 47.8472L35 69L56.4404 47.8472L48.5595 40.0631L35 53.4319Z" fill="white"/>
<path d="M35 42.3056L42.8809 34.5215L35 26.7374L27.119 34.5215L35 42.3056Z" fill="white"/>
</g>
<defs>
<clipPath id="clip0">
<rect width="70" height="69" fill="white"/>
</clipPath>
</defs>
</svg>
