<svg id="Layer_1" data-name="Layer 1" xmlns="http://www.w3.org/2000/svg" viewBox="0 0 34.32 38"><title>rf-logo</title><path d="M35.14,3.42a36.06,36.06,0,0,0-10.53-3L23.64,4a36,36,0,0,1,8.83,2.25V17.48c0,8.85-6.54,13-13.47,16.42-1-.49-2-1-3-1.53l-1,3.68c1.13.6,2.2,1.12,3.14,1.57L19,38l.8-.38c5.72-2.75,16.36-7.86,16.36-20.14V3.93Z" transform="translate(-1.84 0)" style="fill:#1ed760"/><path d="M25.37,18.69a5.07,5.07,0,0,0,2.11-4.21,5.2,5.2,0,0,0-5.24-5h-.06L21.24,13H22a1.59,1.59,0,1,1,0,3.18H20.39l-.94,3.51h2.3L24.3,24.4h4.22Z" transform="translate(-1.84 0)" style="fill:#1ed760"/><path d="M15.25,19.66h2.19l.94-3.51H15.25V13h4l.94-3.52H13a1.69,1.69,0,0,0-1.68,1.69V22.72A1.68,1.68,0,0,0,13,24.4h2.21Z" transform="translate(-1.84 0)" style="fill:#11915a"/><path d="M14.31,31.36c-4.93-3.05-8.78-7.09-8.78-13.88V6.26A37.53,37.53,0,0,1,19,3.69c.9,0,1.8,0,2.69.11l1-3.61C21.42.07,20.19,0,19,0A39.7,39.7,0,0,0,2.86,3.42l-1,.51V17.48c0,9.26,6.05,14.44,11.47,17.6Z" transform="translate(-1.84 0)" style="fill:#11915a"/></svg>